# xmcd
#
# Track frame offsets:
#	182
#	20320
#	36757
#	54335
#	67770
#	79175
#	93427
#	109007
#	127540
#	140222
#	147127
#
# Disc length: 2156 seconds
#
# Revision: 1
# Processed by: cddbd v1.4b42PL1 Copyright (c) Steve Scherf et al.
# Submitted via: audiograbber 1.80
#
DISCID=86086a0b
DTITLE=Rui Veloso - Ar De Rock
DYEAR=1900
DGENRE=
TTITLE0=Rapariguinha Do Shopping
TTITLE1=Ai Quem Me Dera A Mim Rolar Contigo Num Palheiro
TTITLE2=Bairro Do Oriente
TTITLE3=Afurada
TTITLE4=Chico Fininho
TTITLE5=Sei De Uma Camponesa
TTITLE6=Miúda (Fora De Mim)
TTITLE7=Saiu Para A Rua
TTITLE8=No Domingo Fui Às Antas
TTITLE9=Harmónica Azul (Instrumental)
TTITLE10=Donzela Diesel
EXTD=
EXTT0=
EXTT1=
EXTT2=
EXTT3=
EXTT4=
EXTT5=
EXTT6=
EXTT7=
EXTT8=
EXTT9=
EXTT10=
PLAYORDER=
